<?xml version="1.0" encoding="UTF-8"?>
<!DOCTYPE svg PUBLIC "-//W3C//DTD SVG 1.1//EN" "http://www.w3.org/Graphics/SVG/1.1/DTD/svg11.dtd">
<!-- Creator: CorelDRAW 2020 (64-Bit) -->
<svg xmlns="http://www.w3.org/2000/svg" xml:space="preserve" width="1012.16mm" height="237.058mm" version="1.1" style="shape-rendering:geometricPrecision; text-rendering:geometricPrecision; image-rendering:optimizeQuality; fill-rule:evenodd; clip-rule:evenodd"
viewBox="0 0 256931.95 60176.33"
 xmlns:xlink="http://www.w3.org/1999/xlink"
 xmlns:xodm="http://www.corel.com/coreldraw/odm/2003">
 <defs>
  <style type="text/css">
   <![CDATA[
    .fil2 {fill:none}
    .fil3 {fill:#FEFEFE}
    .fil1 {fill:#FEFEFE}
    .fil0 {fill:#5CE1E6}
    .fil6 {fill:#FEFEFE;fill-rule:nonzero}
    .fil4 {fill:#FEFEFE;fill-rule:nonzero}
    .fil5 {fill:#5CE1E6;fill-rule:nonzero}
   ]]>
  </style>
    <clipPath id="id0">
     <path d="M79955.84 29985.87l-79954.9 0 0 29625.35 79954.9 0 0 -29625.35z"/>
    </clipPath>
    <clipPath id="id1">
     <path d="M79954.87 29625.33l-79954.87 0 0 -29625.33 79954.87 0 0 29625.33z"/>
    </clipPath>
 </defs>
 <g id="Capa_x0020_1">
  <metadata id="CorelCorpID_0Corel-Layer"/>
  <g id="_2597342344992">
   <g>
   </g>
   <g style="clip-path:url(#id0)">
    <g id="_2597342347488">
     <rect class="fil0" x="36190.91" y="1622.91" width="10099.56" height="57062.58" rx="5049.78" ry="5451.84"/>
     <rect class="fil1" x="18684.98" y="10544.82" width="10099.56" height="38882.09" rx="5049.78" ry="3714.85"/>
     <rect class="fil1" x="53528.63" y="10544.82" width="10099.56" height="38882.09" rx="5049.78" ry="3714.85"/>
     <rect class="fil1" x="69856.27" y="21149.34" width="10099.56" height="17673.06" rx="5049.78" ry="1688.51"/>
     <rect class="fil1" x="674.22" y="21149.34" width="10099.56" height="17673.06" rx="5049.78" ry="1688.51"/>
    </g>
   </g>
   <polygon class="fil2" points="79955.84,29985.87 0.94,29985.87 0.94,59611.22 79955.84,59611.22 "/>
   <g>
   </g>
   <g style="clip-path:url(#id1)">
    <g>
     <rect class="fil3" x="36189.96" y="925.71" width="10099.56" height="57062.58" rx="5049.78" ry="5451.84"/>
     <rect class="fil0" x="18684.02" y="10184.29" width="10099.56" height="38882.09" rx="5049.78" ry="3714.85"/>
     <rect class="fil0" x="53527.68" y="10184.29" width="10099.56" height="38882.09" rx="5049.78" ry="3714.85"/>
     <rect class="fil0" x="69855.32" y="20788.8" width="10099.56" height="17673.06" rx="5049.78" ry="1688.51"/>
     <rect class="fil0" x="673.27" y="20788.8" width="10099.56" height="17673.06" rx="5049.78" ry="1688.51"/>
    </g>
   </g>
   <polygon class="fil2" points="79954.87,29625.33 -0,29625.33 -0,0 79954.87,0 "/>
  </g>
  <path class="fil4" d="M95559.8 16157.12l0 27375.47 -3574.13 0 0 -27375.47 3574.13 0zm14767.82 27650.43c-1806.72,0 -3423.6,-320.79 -4850.64,-962.3 -1427,-641.49 -2546.38,-1531.78 -3358.08,-2670.74 -811.72,-1139.06 -1230.67,-2454.77 -1256.82,-3947.28l3809.8 0c130.86,1283.01 661.12,2363.08 1590.65,3240.27 929.56,877.19 2284.59,1315.79 4065.09,1315.79 1701.94,0 3043.87,-425.5 4025.77,-1276.54 981.9,-850.97 1472.84,-1944.13 1472.84,-3279.51 0,-1047.34 -287.99,-1898.34 -864.07,-2552.98 -576,-654.57 -1296.11,-1152.08 -2160.2,-1492.44 -864.07,-340.43 -2029.25,-707.01 -3495.56,-1099.71 -1806.65,-471.37 -3253.34,-942.66 -4339.98,-1413.95 -1086.66,-471.37 -2016.15,-1211.05 -2788.63,-2219.1 -772.4,-1008.12 -1158.63,-2363.15 -1158.63,-4065.09 0,-1492.51 379.68,-2814.77 1138.98,-3966.93 759.35,-1152.08 1826.37,-2042.29 3201,-2670.74 1374.7,-628.42 2952.25,-942.63 4732.78,-942.63 2566.08,0 4667.29,641.52 6303.83,1924.53 1636.49,1283.01 2559.48,2984.95 2768.98,5105.91l-3927.61 0c-130.93,-1047.37 -680.79,-1970.35 -1649.59,-2768.98 -968.85,-798.6 -2251.87,-1197.95 -3849.09,-1197.95 -1492.51,0 -2710.06,386.23 -3652.64,1158.63 -942.63,772.48 -1413.92,1852.54 -1413.92,3240.32 0,995.03 281.44,1806.67 844.42,2435.09 562.95,628.45 1256.79,1106.29 2081.61,1433.6 824.82,327.26 1983.45,700.39 3475.91,1119.38 1806.72,497.44 3259.92,988.4 4359.7,1472.87 1099.71,484.39 2042.29,1230.65 2827.79,2238.69 785.58,1008.1 1178.3,2376.25 1178.3,4104.33 0,1335.43 -353.48,2592.22 -1060.42,3770.53 -706.99,1178.3 -1754.36,2133.98 -3142.08,2867.14 -1387.8,733.13 -3024.27,1099.79 -4909.51,1099.79zm30556.79 -6362.78l-11939.93 0 -2199.45 6087.81 -3770.53 0 9897.58 -27218.31 4123.98 0 9858.26 27218.31 -3770.48 0 -2199.45 -6087.81zm-1021.2 -2906.44l-4948.75 -13825.19 -4948.83 13825.19 9897.58 0z"/>
  <path class="fil5" d="M171667.59 30041.28c1597.22,340.43 2880.24,1132.48 3849.02,2376.18 968.8,1243.77 1453.27,2664.24 1453.27,4261.47 0,2304.24 -805.17,4130.56 -2415.5,5479.04 -1610.35,1348.48 -3855.59,2022.7 -6735.88,2022.7l-12843.29 0 0 -27571.77 12411.24 0c2801.72,0 4994.62,641.47 6578.75,1924.48 1584.18,1283.01 2376.23,3024.27 2376.23,5223.72 0,1623.45 -425.47,2971.9 -1276.44,4045.42 -851.04,1073.59 -1983.48,1819.82 -3397.4,2238.77zm-9976.15 -2278.01l4398.95 0c1099.74,0 1944.16,-242.19 2533.26,-726.61 589.18,-484.39 883.74,-1197.95 883.74,-2140.53 0,-942.63 -294.56,-1662.69 -883.74,-2160.18 -589.1,-497.51 -1433.52,-746.26 -2533.26,-746.26l-4398.95 0 0 5773.58zm4948.83 10997.3c1125.86,0 1996.5,-255.32 2611.82,-765.85 615.32,-510.61 922.98,-1250.32 922.98,-2219.1 0,-968.8 -320.76,-1728.16 -962.25,-2278.01 -641.52,-549.88 -1525.21,-824.82 -2651.14,-824.82l-4870.24 0 0 6087.79 4948.83 0zm12882.51 -5577.2c0,-2251.79 425.5,-4228.69 1276.46,-5930.71 850.97,-1701.94 2009.67,-3011.17 3475.96,-3927.61 1466.29,-916.43 3102.79,-1374.63 4909.51,-1374.63 1544.86,0 2899.89,314.24 4065.09,942.58 1165.18,628.45 2061.97,1453.27 2690.39,2474.41l0 -3102.76 6716.23 0 0 21916 -6716.23 0 0 -3102.84c-654.59,1021.22 -1564.53,1845.99 -2729.71,2474.41 -1165.2,628.42 -2520.23,942.66 -4065.01,942.66 -1780.53,0 -3403.97,-464.82 -4870.26,-1394.3 -1466.29,-929.53 -2625,-2251.87 -3475.96,-3966.9 -850.97,-1715.06 -1276.46,-3698.51 -1276.46,-5950.33zm16417.42 39.27c0,-1675.74 -464.74,-2998.07 -1394.27,-3966.85 -929.56,-968.8 -2062.04,-1453.27 -3397.4,-1453.27 -1335.38,0 -2467.87,477.92 -3397.4,1433.6 -929.56,955.76 -1394.27,2271.46 -1394.27,3947.25 0,1675.82 464.72,3004.62 1394.27,3986.52 929.53,981.9 2062.02,1472.84 3397.4,1472.84 1335.36,0 2467.84,-484.39 3397.4,-1453.19 929.53,-968.78 1394.27,-2291.11 1394.27,-3966.9zm24940.3 -11193.7c2566.03,0 4614.95,831.37 6146.7,2494.06 1531.76,1662.69 2297.66,3947.25 2297.66,6853.64l0 12804.02 -6676.96 0 0 -11900.61c0,-1466.37 -379.63,-2605.35 -1138.98,-3417.07 -759.35,-811.72 -1780.5,-1217.55 -3063.52,-1217.55 -1283.01,0 -2304.24,405.82 -3063.52,1217.55 -759.38,811.72 -1139.06,1950.71 -1139.06,3417.07l0 11900.61 -6716.21 0 0 -21916 6716.21 0 0 2906.38c680.79,-968.8 1597.22,-1734.71 2749.3,-2297.61 1152.16,-562.98 2448.27,-844.49 3888.36,-844.49zm26511.3 22151.72l-6676.91 -9190.57 0 9190.57 -6716.21 0 0 -29064.28 6716.21 0 0 16063.93 6637.67 -8915.66 8287.24 0 -9112.01 10997.3 9190.57 10918.7 -8326.56 0z"/>
  <path class="fil6" d="M92899.5 53382.25l0 6726.54 -878.26 0 0 -6726.54 878.26 0zm6784.44 6726.54l-878.21 0 -3532.14 -5356.13 0 5356.13 -878.28 0 0 -6736.13 878.28 0 3532.14 5346.43 0 -5346.43 878.21 0 0 6736.13zm6591.39 -4777.1c-186.58,-392.42 -456.77,-696.45 -810.63,-911.99 -353.91,-215.49 -765.65,-323.25 -1235.29,-323.25 -469.72,0 -892.7,107.76 -1269.08,323.25 -376.38,215.54 -672.34,524.34 -887.88,926.49 -215.54,402.14 -323.32,866.93 -323.32,1394.53 0,527.54 107.78,990.81 323.32,1389.71 215.54,398.89 511.5,706.12 887.88,921.66 376.38,215.46 799.36,323.25 1269.08,323.25 656.22,0 1196.68,-196.22 1621.26,-588.67 424.66,-392.47 672.34,-923.26 743.13,-1592.4l-2682.87 0 0 -714.12 3618.98 0 0 675.56c-51.48,553.31 -225.16,1059.96 -521.12,1519.93 -295.96,460.05 -685.23,823.55 -1167.72,1090.57 -482.56,267 -1019.75,400.47 -1611.67,400.47 -624.11,0 -1193.51,-146.37 -1708.18,-439.08 -514.67,-292.74 -921.66,-699.7 -1220.8,-1220.8 -299.21,-521.17 -448.77,-1109.84 -448.77,-1766.08 0,-656.22 149.57,-1246.56 448.77,-1770.91 299.13,-524.34 706.12,-932.91 1220.8,-1225.62 514.67,-292.79 1084.07,-439.1 1708.18,-439.1 714.12,0 1346.25,176.93 1896.36,530.77 550.06,353.86 950.55,852.52 1201.53,1495.84l-1051.96 0zm3290.91 -1235.24l0 2248.57 2451.24 0 0 723.79 -2451.24 0 0 2316.19 2740.78 0 0 723.79 -3619.06 0 0 -6736.13 3619.06 0 0 723.79 -2740.78 0zm9361.13 6012.34l-878.21 0 -3532.14 -5356.13 0 5356.13 -878.26 0 0 -6736.13 878.26 0 3532.14 5346.43 0 -5346.43 878.21 0 0 6736.13zm2374.07 -6726.54l0 6726.54 -878.26 0 0 -6726.54 878.26 0zm2374.09 714.2l0 2248.57 2451.24 0 0 723.79 -2451.24 0 0 2316.19 2740.78 0 0 723.79 -3619.03 0 0 -6736.13 3619.03 0 0 723.79 -2740.78 0zm7614.34 6012.34l-1602 -2750.45 -1061.56 0 0 2750.45 -878.26 0 0 -6726.54 2171.45 0c508.25,0 937.68,86.92 1288.34,260.6 350.61,173.73 612.78,408.54 786.54,704.5 173.68,295.96 260.57,633.73 260.57,1013.33 0,463.22 -133.52,871.78 -400.54,1225.64 -267,353.84 -667.49,588.67 -1201.5,704.45l1688.89 2818.02 -1051.94 0zm-2663.56 -3454.92l1293.19 0c476.06,0 833.15,-117.43 1071.23,-352.26 237.98,-234.88 357.03,-548.51 357.03,-940.93 0,-398.89 -117.38,-707.75 -352.26,-926.49 -234.83,-218.71 -593.52,-328.15 -1076,-328.15l-1293.19 0 0 2547.83zm5867.6 -3271.62l0 6726.54 -878.26 0 0 -6726.54 878.26 0zm5471.9 5230.65l-2933.8 0 -540.39 1495.89 -926.49 0 2431.97 -6687.93 1013.33 0 2422.3 6687.93 -926.49 0 -540.44 -1495.89zm-250.9 -714.12l-1215.97 -3397.02 -1216 3397.02 2431.97 0zm7450.33 -4516.53c733.46,0 1368.76,136.72 1906.03,410.16 537.19,273.42 948.95,664.32 1235.24,1172.57 286.34,508.25 429.48,1106.59 429.48,1795.02 0,688.41 -143.14,1285.17 -429.48,1790.17 -286.29,505.08 -698.05,891.13 -1235.24,1158.12 -537.27,267.02 -1172.57,400.49 -1906.03,400.49l-2094.23 0 0 -6726.54 2094.23 0zm0 6002.75c868.51,0 1531.25,-229.98 1988.02,-690.03 456.8,-460.02 685.18,-1104.99 685.18,-1934.97 0,-836.42 -229.98,-1489.39 -690,-1959.11 -460.05,-469.64 -1121.11,-704.45 -1983.2,-704.45l-1215.97 0 0 5288.55 1215.97 0zm5607.08 -5288.55l0 2248.57 2451.26 0 0 723.79 -2451.26 0 0 2316.19 2740.78 0 0 723.79 -3619.03 0 0 -6736.13 3619.03 0 0 723.79 -2740.78 0zm8782.08 6079.89c-443.95,0 -841.25,-78.82 -1191.86,-236.46 -350.66,-157.59 -625.68,-376.38 -825.13,-656.24 -199.45,-279.87 -302.41,-603.16 -308.83,-969.87l936.11 0c32.19,315.23 162.41,580.65 390.8,796.19 228.46,215.54 561.38,323.25 998.91,323.25 418.16,0 747.91,-104.51 989.14,-313.63 241.31,-209.07 361.93,-477.66 361.93,-805.81 0,-257.35 -70.75,-466.47 -212.29,-627.28 -141.54,-160.84 -318.48,-283.11 -530.77,-366.78 -212.37,-83.59 -498.66,-173.68 -858.94,-270.19 -443.93,-115.78 -799.44,-231.63 -1066.38,-347.41 -267.02,-115.78 -495.41,-297.56 -685.26,-545.29 -189.78,-247.68 -284.69,-580.65 -284.69,-998.81 0,-366.71 93.34,-691.6 279.87,-974.72 186.6,-283.11 448.77,-501.83 786.59,-656.24 337.74,-154.39 725.39,-231.63 1162.89,-231.63 630.48,0 1146.8,157.66 1548.94,472.89 402.07,315.23 628.88,733.46 680.33,1254.56l-965.05 0c-32.19,-257.32 -167.31,-484.14 -405.37,-680.33 -238.01,-196.27 -553.31,-294.36 -945.78,-294.36 -366.68,0 -665.84,94.91 -897.47,284.69 -231.63,189.78 -347.41,455.2 -347.41,796.19 0,244.5 69.15,443.95 207.47,598.34 138.37,154.41 308.85,271.84 511.5,352.26 202.67,80.42 487.38,172.08 854.09,275.04 443.93,122.2 801.01,242.88 1071.2,361.91 270.19,118.98 501.83,302.38 694.85,550.06 193.02,247.73 289.54,583.9 289.54,1008.5 0,328.15 -86.84,636.95 -260.6,926.49 -173.68,289.51 -431.08,524.34 -772.02,704.45 -340.99,180.18 -743.13,270.24 -1206.33,270.24zm6581.72 0c-624.11,0 -1193.48,-146.37 -1708.18,-439.08 -514.67,-292.79 -921.64,-701.28 -1220.77,-1225.64 -299.21,-524.34 -448.77,-1114.66 -448.77,-1770.91 0,-656.22 149.57,-1246.56 448.77,-1770.91 299.13,-524.34 706.1,-932.91 1220.77,-1225.62 514.7,-292.79 1084.07,-439.1 1708.18,-439.1 630.48,0 1203.1,146.32 1717.8,439.1 514.72,292.71 920.04,699.68 1216,1220.8 295.96,521.17 443.95,1113.01 443.95,1775.73 0,662.67 -147.99,1254.58 -443.95,1775.68 -295.96,521.17 -701.28,928.09 -1216,1220.87 -514.7,292.71 -1087.32,439.08 -1717.8,439.08zm0 -762.4c469.64,0 892.65,-109.36 1269.08,-328.15 376.38,-218.71 672.34,-530.77 887.8,-936.11 215.57,-405.32 323.32,-874.96 323.32,-1408.97 0,-540.44 -107.76,-1011.73 -323.32,-1413.8 -215.46,-402.14 -509.82,-712.55 -883.03,-931.34 -373.13,-218.71 -797.79,-328.07 -1273.85,-328.07 -476.11,0 -900.72,109.36 -1273.9,328.07 -373.13,218.79 -667.49,529.19 -883.05,931.34 -215.54,402.07 -323.3,873.36 -323.3,1413.8 0,534.02 107.76,1003.66 323.3,1408.97 215.57,405.34 511.5,717.39 887.88,936.11 376.38,218.79 799.39,328.15 1269.08,328.15zm8338.13 -6031.69l0 714.2 -2924.13 0 0 2267.89 2374.02 0 0 714.15 -2374.02 0 0 3030.31 -878.26 0 0 -6726.54 3802.38 0zm5201.71 0l0 714.2 -1833.63 0 0 6012.34 -878.21 0 0 -6012.34 -1843.23 0 0 -714.2 4555.06 0zm9534.81 0l-1949.41 6726.54 -984.39 0 -1563.39 -5414 -1621.34 5414 -974.69 9.67 -1881.86 -6736.21 936.08 0 1466.95 5703.54 1621.26 -5703.54 984.39 0 1544.09 5684.25 1476.55 -5684.25 945.75 0zm4941.14 5230.65l-2933.83 0 -540.36 1495.89 -926.49 0 2431.97 -6687.93 1013.33 0 2422.3 6687.93 -926.49 0 -540.44 -1495.89zm-250.93 -714.12l-1215.95 -3397.02 -1216.02 3397.02 2431.97 0zm6321.22 2210.01l-1602 -2750.45 -1061.56 0 0 2750.45 -878.26 0 0 -6726.54 2171.45 0c508.25,0 937.68,86.92 1288.34,260.6 350.61,173.73 612.78,408.54 786.54,704.5 173.68,295.96 260.57,633.73 260.57,1013.33 0,463.22 -133.52,871.78 -400.54,1225.64 -267.02,353.84 -667.49,588.67 -1201.5,704.45l1688.89 2818.02 -1051.94 0zm-2663.56 -3454.92l1293.19 0c476.06,0 833.15,-117.43 1071.23,-352.26 237.98,-234.88 357.01,-548.51 357.01,-940.93 0,-398.89 -117.38,-707.75 -352.24,-926.49 -234.83,-218.71 -593.52,-328.15 -1076,-328.15l-1293.19 0 0 2547.83zm5867.6 -2557.42l0 2248.57 2451.26 0 0 723.79 -2451.26 0 0 2316.19 2740.8 0 0 723.79 -3619.06 0 0 -6736.13 3619.06 0 0 723.79 -2740.8 0zm10625.33 4516.45l-2933.83 0 -540.36 1495.89 -926.49 0 2431.97 -6687.93 1013.33 0 2422.3 6687.93 -926.49 0 -540.44 -1495.89zm-250.93 -714.12l-1215.95 -3397.02 -1216.02 3397.02 2431.97 0zm7276.65 -2547.78c0,559.73 -191.43,1024.6 -574.23,1394.55 -382.8,369.93 -966.7,554.88 -1751.56,554.88l-1293.19 0 0 2808.35 -878.26 0 0 -6726.54 2171.45 0c759.15,0 1336.58,183.35 1732.3,550.11 395.64,366.71 593.49,839.6 593.49,1418.64zm-2325.79 1225.64c488.91,0 849.24,-106.18 1080.83,-318.48 231.63,-212.32 347.41,-514.7 347.41,-907.17 0,-829.97 -476.06,-1244.96 -1428.24,-1244.96l-1293.19 0 0 2470.61 1293.19 0zm4294.54 2818.02l2354.75 0 0 714.12 -3233.01 0 0 -6726.54 878.26 0 0 6012.42zm4169.12 -6012.42l0 6726.54 -878.28 0 0 -6726.54 878.28 0zm1167.72 3358.46c0,-656.22 147.99,-1246.56 443.95,-1770.91 295.96,-524.34 699.68,-934.51 1211.12,-1230.47 511.5,-295.93 1079.3,-443.93 1703.33,-443.93 733.46,0 1373.61,176.93 1920.47,530.77 546.89,353.86 945.78,855.69 1196.76,1505.51l-1051.96 0c-186.58,-405.34 -455.2,-717.32 -805.86,-936.11 -350.61,-218.71 -770.42,-328.07 -1259.41,-328.07 -469.64,0 -891.05,109.36 -1264.23,328.07 -373.13,218.79 -665.86,529.19 -878.21,931.34 -212.32,402.07 -318.48,873.36 -318.48,1413.8 0,534.02 106.16,1002.08 318.48,1404.15 212.34,402.14 505.08,712.55 878.21,931.31 373.18,218.74 794.59,328.1 1264.23,328.1 488.98,0 908.79,-107.78 1259.41,-323.25 350.66,-215.54 619.28,-525.99 805.86,-931.34l1051.96 0c-250.98,643.4 -649.87,1140.38 -1196.76,1491.07 -546.86,350.59 -1187.01,525.92 -1920.47,525.92 -624.03,0 -1191.83,-146.37 -1703.33,-439.08 -511.45,-292.74 -915.17,-699.7 -1211.12,-1220.8 -295.96,-521.17 -443.95,-1109.84 -443.95,-1766.08zm11754.49 1872.19l-2933.8 0 -540.39 1495.89 -926.49 0 2432 -6687.93 1013.33 0 2422.3 6687.93 -926.49 0 -540.46 -1495.89zm-250.9 -714.12l-1215.95 -3397.02 -1216.02 3397.02 2431.97 0zm4873.62 -4516.53c733.46,0 1368.76,136.72 1906.03,410.16 537.21,273.42 948.95,664.32 1235.24,1172.57 286.36,508.25 429.51,1106.59 429.51,1795.02 0,688.41 -143.14,1285.17 -429.51,1790.17 -286.29,505.08 -698.03,891.13 -1235.24,1158.12 -537.27,267.02 -1172.57,400.49 -1906.03,400.49l-2094.23 0 0 -6726.54 2094.23 0zm0 6002.75c868.53,0 1531.25,-229.98 1988.05,-690.03 456.77,-460.02 685.18,-1104.99 685.18,-1934.97 0,-836.42 -229.98,-1489.39 -690.03,-1959.11 -460.02,-469.64 -1121.09,-704.45 -1983.2,-704.45l-1215.95 0 0 5288.55 1215.95 0zm8704.91 -772.1l-2933.8 0 -540.39 1495.89 -926.49 0 2431.97 -6687.93 1013.33 0 2422.3 6687.93 -926.49 0 -540.44 -1495.89zm-250.93 -714.12l-1215.95 -3397.02 -1216.02 3397.02 2431.97 0z"/>
 </g>
</svg>
